<?xml version="1.0" encoding="UTF-8"?>
<svg id="Layer_1" data-name="Layer 1" xmlns="http://www.w3.org/2000/svg" viewBox="0 0 1254 1254">
  <defs>
    <style>
      .cls-1 {
        fill: #5f4a3b;
      }
    </style>
  </defs>
  <path class="cls-1" d="M695.12,421.51c.33,2.7-2.95,1.14-4.41.79-11.55-2.78-24.67-9.12-36.54-12.8-54.1-16.79-149.4-38.47-205.01-34.49-16.1,1.15-20.85,2.42-11.16,17.08,39.24,59.36,198.54,79.07,261.16,58.83,4.26-1.38,7.65-4.06,11.92-4.75,1.7,1.63-8.68,10.96-10.22,12.27-2.48,2.1-6.76,1.02-5.72,5.13,17.06-1.9,31.43-6.79,30.51,15.3-1.91,45.88-37.36,89.84-79.84,105.14-.31,2.7,3.05,1.2,4.64,1.02,21.52-2.46,56.37-10.57,75.69-20.08,12.62-6.21,22.84-20.65,22.8,6.71-.05,30.85-12.86,69.94-32.76,93.59-2.58,3.06-15.65,16.68-18.18,18.09-1.13.63-3.84,1.7-4.32.03,27.92-31.68,44.37-74.63,46.41-116.79-9.05,4.3-17.72,9.2-27.2,12.68-97.58,35.93-226.24,16.2-329.02,22.07-11.62.66-23.79,3.81-35.48,4.4,1.16-2.26,6.31-4.06,8.72-5.04,57.65-23.52,164.05-5.63,229.74-12.54,64.83-6.82,128.83-48.08,130.04-118.79-5.25-.94-10.23,1.35-15.18,1.52-7.34.25-16.88-1.47-23.08-1.04-8.45.58-27.58,7.46-38.33,9.27-68.88,11.58-139.04,5.41-208.43,9.19-21.21,1.15-51.06-5.11-32.94,27.02,22.77,40.4,101,59.44,143.86,65.79l-26.81-.03c-43.47-5.15-115.82-21.28-132-68.21-10.22-29.65,3.23-36.03,30.37-37.75,75.12-4.75,149.84,6.69,226.2-4.47,2.46-.36,10.97-.31,9.61-4.17-9.47.91-18.76,1.7-28.34,1.5-55.01-1.13-150.38-15.75-186.33-61.75-4.72-6.05-17.3-28.81-10.21-34.8,8.93-7.56,75.68-2.27,90.49-.5,60.61,7.26,124.72,23.73,179.37,50.59Z"/>
  <path class="cls-1" d="M328.09,826.24l30.34-12.43c53.17-32.4,63.75-110.34,24.74-157.98-62.21-75.97-172.52-26.28-165.16,69.41,6.22,80.86,95.24,125.53,165.19,140.93,93.04,20.47,200.39,8.39,280.75-44.26,2.12,5.41-10.05,12.36-14.79,15.68-107.47,75.39-350.04,67.41-426.71-50.06-67.75-103.8,42.8-218.13,145.77-161.73,91.26,49.99,64.02,192.45-40.13,200.44Z"/>
  <path class="cls-1" d="M856.9,686.98c32.31,3.83,47.45,41.37,22.5,63.12-8.32,7.26-16.47,7.5-26.1,11.59,16.74,17.34,27.95,39.52,45.92,55.61l16.43,8.94c-39.58,6.75-51.7-32.7-72.57-55.8-8.34-9.23-15.69-11.1-27.52-5.85v60.21h-15.97s0-137.82,0-137.82c18.13,1.56,39.6-2.1,57.31,0ZM817.73,691.33l-2.18,2.18v62.38l2.18,2.18h26.11c1.21,0,10.93-3.62,12.87-4.54,21.45-10.09,25.84-42.9,5.74-56.15-2.23-1.47-12.28-6.05-14.26-6.05h-30.47Z"/>
  <path class="cls-1" d="M480.42,686.98v89.22c0,9.86,6.65,25.66,13.8,32.63,18.89,18.41,57.01,15.05,70.12-8.19,11.21-19.87,8.19-82.22,7.56-107.22-.06-2.47-.46-4.26-1.53-6.43h11.61s0,87.76,0,87.76c0,66.57-108.34,71.87-115.91,7.1-3.48-29.78,3.45-64.16-1.63-94.12l15.98-.75Z"/>
  <path class="cls-1" d="M645.64,687.15l48.06,112.99,49.48-112.99,9.98-.17-61.67,137.81-64.52-135.67c-.38-2.95.12-1.89,2.13-2.16s15.92-.37,16.55.18Z"/>
  <path class="cls-1" d="M1015.03,686.98c-45.81,4.23-70.53,43.05-61.02,87.14,9.7,44.96,65.14,64.96,98,30.38,2.72,15.43-10.95,18.64-23.12,21.11-55.94,11.35-104.43-28.2-91.04-86.69,11.39-49.74,59.9-58.01,103.44-62.03,4.06-.42,6.24,10.1,2.76,10.1-9.19,0-20.12-.82-29.02,0Z"/>
  <path class="cls-1" d="M962.09,760.96l73.3-21.55c1.6.16,4.04,6.77,2.97,8.52-3.62,5.9-66.13,15.52-76.27,13.03Z"/>
</svg>